<?xml version="1.0" encoding="UTF-8" standalone="no"?>
<!-- Created with Inkscape (http://www.inkscape.org/) -->

<svg
   xmlns:dc="http://purl.org/dc/elements/1.1/"
   xmlns:cc="http://creativecommons.org/ns#"
   xmlns:rdf="http://www.w3.org/1999/02/22-rdf-syntax-ns#"
   xmlns:svg="http://www.w3.org/2000/svg"
   xmlns="http://www.w3.org/2000/svg"
   xmlns:sodipodi="http://sodipodi.sourceforge.net/DTD/sodipodi-0.dtd"
   xmlns:inkscape="http://www.inkscape.org/namespaces/inkscape"
   width="16.816648mm"
   height="16.816648mm"
   viewBox="0 0 16.816648 16.816648"
   version="1.1"
   id="svg8"
   inkscape:version="0.92.4 (5da689c313, 2019-01-14)"
   sodipodi:docname="favicon.svg"
   inkscape:export-filename="C:\Users\julio\Documents\WWW\arch\favicon.png"
   inkscape:export-xdpi="96.666107"
   inkscape:export-ydpi="96.666107">
  <defs
     id="defs2" />
  <sodipodi:namedview
     id="base"
     pagecolor="#ffffff"
     bordercolor="#666666"
     borderopacity="1.0"
     inkscape:pageopacity="0.0"
     inkscape:pageshadow="2"
     inkscape:zoom="6.08125"
     inkscape:cx="31.033927"
     inkscape:cy="23.557556"
     inkscape:document-units="mm"
     inkscape:current-layer="layer1"
     showgrid="false"
     inkscape:snap-global="false"
     inkscape:window-width="1366"
     inkscape:window-height="705"
     inkscape:window-x="-8"
     inkscape:window-y="-8"
     inkscape:window-maximized="1" />
  <metadata
     id="metadata5">
    <rdf:RDF>
      <cc:Work
         rdf:about="">
        <dc:format>image/svg+xml</dc:format>
        <dc:type
           rdf:resource="http://purl.org/dc/dcmitype/StillImage" />
        <dc:title></dc:title>
      </cc:Work>
    </rdf:RDF>
  </metadata>
  <g
     inkscape:label="Capa 1"
     inkscape:groupmode="layer"
     id="layer1"
     transform="translate(-45.017296,-107.79962)">
    <path
       inkscape:connector-curvature="0"
       id="path853"
       style="font-style:normal;font-variant:normal;font-weight:normal;font-stretch:normal;font-size:9.8777771px;line-height:1.25;font-family:'Courier New';-inkscape-font-specification:'Courier New';letter-spacing:0px;word-spacing:0px;fill:#3fffbb;fill-opacity:1;stroke:#152b3c;stroke-width:0.4878391;stroke-miterlimit:4;stroke-dasharray:none;stroke-opacity:1;paint-order:markers stroke fill"
       d="m 51.587968,108.73851 v 4.83331 q 0,0.99662 -0.742581,1.72617 -0.742582,0.72956 -1.771773,0.72956 -0.618819,0 -1.218094,-0.2801 -0.592762,-0.2866 -1.296261,-0.93149 v -2.01929 q 0,-0.19543 0.07817,-0.2801 0.07817,-0.0846 0.195417,-0.0846 0.123763,0 0.201929,0.0846 0.07817,0.0846 0.07817,0.2801 l -0.0064,1.75873 q 0.501566,0.46249 0.990106,0.697 0.495056,0.22799 0.977083,0.22799 0.534136,0 1.009651,-0.26057 0.358262,-0.19542 0.651385,-0.65791 0.299638,-0.46248 0.299638,-0.99009 v -4.83331 h -2.143063 q -0.20193,0 -0.286611,-0.0715 -0.08469,-0.0782 -0.08469,-0.20194 0,-0.1237 0.08469,-0.1954 0.08469,-0.0782 0.286611,-0.0782 h 3.999518 q 0.195415,0 0.280097,0.0782 0.08467,0.0715 0.08467,0.1954 0,0.12372 -0.08467,0.20194 -0.08469,0.0715 -0.280097,0.0715 z" />
    <path
       inkscape:connector-curvature="0"
       id="path855"
       style="font-style:normal;font-variant:normal;font-weight:normal;font-stretch:normal;font-size:9.8777771px;line-height:1.25;font-family:'Courier New';-inkscape-font-specification:'Courier New';letter-spacing:0px;word-spacing:0px;fill:#3fffbb;fill-opacity:1;stroke:#152b3c;stroke-width:0.4878391;stroke-miterlimit:4;stroke-dasharray:none;stroke-opacity:1;paint-order:markers stroke fill"
       d="m 55.800087,112.13225 v 3.13317 h 4.207962 v -1.61543 q 0,-0.19543 0.07164,-0.28011 0.07817,-0.0846 0.201931,-0.0846 0.123764,0 0.195417,0.0846 0.07817,0.0846 0.07817,0.28011 v 2.16261 h -6.038359 q -0.195415,0 -0.280096,-0.0783 -0.08467,-0.0782 -0.08467,-0.19543 0,-0.12372 0.08467,-0.19541 0.08467,-0.0782 0.280096,-0.0782 h 0.736068 v -6.52691 h -0.736068 q -0.195415,0 -0.280096,-0.0715 -0.08467,-0.0782 -0.08467,-0.20194 0,-0.1237 0.08467,-0.1954 0.08467,-0.0783 0.280096,-0.0783 h 5.751749 v 1.88252 q 0,0.1954 -0.07817,0.28009 -0.07166,0.0846 -0.195418,0.0846 -0.123763,0 -0.20193,-0.0846 -0.07166,-0.0846 -0.07166,-0.28009 v -1.33535 h -3.921352 v 2.84655 h 1.960675 v -0.6188 q 0,-0.19542 0.07817,-0.28011 0.07817,-0.0846 0.20193,-0.0846 0.117255,0 0.195416,0.0846 0.07817,0.0846 0.07817,0.28011 v 1.78479 q 0,0.19543 -0.07817,0.2801 -0.07817,0.0846 -0.195416,0.0846 -0.123765,0 -0.20193,-0.0846 -0.07817,-0.0846 -0.07817,-0.2801 v -0.61882 z" />
    <path
       inkscape:connector-curvature="0"
       id="path858"
       style="font-style:normal;font-variant:normal;font-weight:normal;font-stretch:normal;font-size:9.8777771px;line-height:1.25;font-family:'Courier New';-inkscape-font-specification:'Courier New';letter-spacing:0px;word-spacing:0px;fill:#3fffbb;fill-opacity:1;stroke:#152b3c;stroke-width:0.4878391;stroke-miterlimit:4;stroke-dasharray:none;stroke-opacity:1;paint-order:markers stroke fill"
       d="m 51.908546,117.28536 v -0.38432 q 0,-0.19542 0.07166,-0.2801 0.07817,-0.0846 0.201929,-0.0846 0.123764,0 0.195417,0.0846 0.07817,0.0846 0.07817,0.2801 v 1.51773 q 0,0.20192 -0.07817,0.28659 -0.07164,0.0846 -0.195417,0.0846 -0.11073,0 -0.188901,-0.0783 -0.07164,-0.0782 -0.08469,-0.25404 -0.03258,-0.54716 -0.592763,-0.97056 -0.755608,-0.57974 -1.719661,-0.57974 -0.631846,0 -1.192038,0.28009 -0.416889,0.20193 -0.664416,0.49506 -0.429916,0.50809 -0.683957,1.1269 -0.182389,0.45597 -0.182389,1.02918 v 0.95754 q 0,1.22463 0.885886,2.13005 0.885889,0.89892 2.058385,0.89892 0.703498,0 1.257177,-0.30616 0.560194,-0.30616 1.081303,-0.92499 0.110732,-0.13677 0.247529,-0.13677 0.117254,0 0.188901,0.0715 0.07166,0.0717 0.07166,0.1824 0,0.14981 -0.280097,0.45598 -0.534136,0.59927 -1.205066,0.90543 -0.664414,0.29963 -1.348371,0.29963 -0.592763,0 -1.205067,-0.22798 -0.468997,-0.17587 -0.775151,-0.41037 -0.306151,-0.23451 -0.755608,-0.78819 -0.442944,-0.56019 -0.60579,-1.02918 -0.162847,-0.47553 -0.162847,-1.04223 v -1.1138 q 0,-0.80771 0.429915,-1.648 0.43643,-0.84681 1.185525,-1.29626 0.755609,-0.45596 1.634982,-0.45596 1.354885,0 2.331966,0.92496 z" />
    <path
       inkscape:connector-curvature="0"
       id="path860"
       style="font-style:normal;font-variant:normal;font-weight:normal;font-stretch:normal;font-size:9.8777771px;line-height:1.25;font-family:'Courier New';-inkscape-font-specification:'Courier New';letter-spacing:0px;word-spacing:0px;fill:#3fffbb;fill-opacity:1;stroke:#152b3c;stroke-width:0.4878391;stroke-miterlimit:4;stroke-dasharray:none;stroke-opacity:1;paint-order:markers stroke fill"
       d="m 55.791313,120.58656 v 3.13316 h 1.875994 q 0.195416,0 0.280097,0.0783 0.08469,0.0717 0.08469,0.19541 0,0.11722 -0.08469,0.19542 -0.08467,0.0782 -0.280097,0.0782 H 54.50808 q -0.195415,0 -0.280097,-0.0782 -0.08468,-0.0783 -0.08468,-0.19542 0,-0.12371 0.08468,-0.19541 0.08467,-0.0783 0.280097,-0.0783 h 0.736067 v -6.52691 H 54.50808 q -0.195415,0 -0.280097,-0.0715 -0.08468,-0.0782 -0.08468,-0.20194 0,-0.1237 0.0977,-0.20844 0.07166,-0.0651 0.267069,-0.0651 h 6.025333 v 1.88252 q 0,0.19541 -0.07817,0.28008 -0.07817,0.0846 -0.195417,0.0846 -0.123763,0 -0.201931,-0.0846 -0.07817,-0.0846 -0.07817,-0.28008 v -1.33536 h -4.18842 v 2.84657 h 1.960675 v -0.6188 q 0,-0.19543 0.07817,-0.28011 0.07817,-0.0846 0.201931,-0.0846 0.117254,0 0.195415,0.0846 0.07817,0.0846 0.07817,0.28011 v 1.78478 q 0,0.19543 -0.07817,0.2801 -0.07817,0.0846 -0.195415,0.0846 -0.123765,0 -0.201931,-0.0846 -0.07817,-0.0846 -0.07817,-0.2801 v -0.6188 z" />
  </g>
</svg>
