<?xml version="1.0" encoding="UTF-8"?>
<svg width="16.817mm" height="16.817mm" version="1.1" viewBox="0 0 16.816648 16.816648" xmlns="http://www.w3.org/2000/svg" xmlns:cc="http://creativecommons.org/ns#" xmlns:dc="http://purl.org/dc/elements/1.1/" xmlns:rdf="http://www.w3.org/1999/02/22-rdf-syntax-ns#">
<metadata>
<rdf:RDF>
<cc:Work rdf:about="">
<dc:format>image/svg+xml</dc:format>
<dc:type rdf:resource="http://purl.org/dc/dcmitype/StillImage"/>
<dc:title/>
</cc:Work>
</rdf:RDF>
</metadata>
<g transform="translate(-45.017 -107.8)" fill="#3fffbb" stroke="#152b3c" stroke-width=".48784">
<path d="m51.588 108.74v4.8333q0 0.99662-0.74258 1.7262-0.74258 0.72956-1.7718 0.72956-0.61882 0-1.2181-0.2801-0.59276-0.2866-1.2963-0.93149v-2.0193q0-0.19543 0.07817-0.2801 0.07817-0.0846 0.19542-0.0846 0.12376 0 0.20193 0.0846 0.07817 0.0846 0.07817 0.2801l-0.0064 1.7587q0.50157 0.46249 0.99011 0.697 0.49506 0.22799 0.97708 0.22799 0.53414 0 1.0097-0.26057 0.35826-0.19542 0.65138-0.65791 0.29964-0.46248 0.29964-0.99009v-4.8333h-2.1431q-0.20193 0-0.28661-0.0715-0.08469-0.0782-0.08469-0.20194 0-0.1237 0.08469-0.1954 0.08469-0.0782 0.28661-0.0782h3.9995q0.19542 0 0.2801 0.0782 0.08467 0.0715 0.08467 0.1954 0 0.12372-0.08467 0.20194-0.08469 0.0715-0.2801 0.0715z" style="paint-order:markers stroke fill"/>
<path d="m55.8 112.13v3.1332h4.208v-1.6154q0-0.19543 0.07164-0.28011 0.07817-0.0846 0.20193-0.0846 0.12376 0 0.19542 0.0846 0.07817 0.0846 0.07817 0.28011v2.1626h-6.0384q-0.19542 0-0.2801-0.0783-0.08467-0.0782-0.08467-0.19543 0-0.12372 0.08467-0.19541 0.08467-0.0782 0.2801-0.0782h0.73607v-6.5269h-0.73607q-0.19542 0-0.2801-0.0715-0.08467-0.0782-0.08467-0.20194 0-0.1237 0.08467-0.1954 0.08467-0.0783 0.2801-0.0783h5.7517v1.8825q0 0.1954-0.07817 0.28009-0.07166 0.0846-0.19542 0.0846-0.12376 0-0.20193-0.0846-0.07166-0.0846-0.07166-0.28009v-1.3354h-3.9214v2.8466h1.9607v-0.6188q0-0.19542 0.07817-0.28011 0.07817-0.0846 0.20193-0.0846 0.11726 0 0.19542 0.0846 0.07817 0.0846 0.07817 0.28011v1.7848q0 0.19543-0.07817 0.2801-0.07817 0.0846-0.19542 0.0846-0.12376 0-0.20193-0.0846-0.07817-0.0846-0.07817-0.2801v-0.61882z" style="paint-order:markers stroke fill"/>
<path d="m51.909 117.29v-0.38432q0-0.19542 0.07166-0.2801 0.07817-0.0846 0.20193-0.0846 0.12376 0 0.19542 0.0846 0.07817 0.0846 0.07817 0.2801v1.5177q0 0.20192-0.07817 0.28659-0.07164 0.0846-0.19542 0.0846-0.11073 0-0.1889-0.0783-0.07164-0.0782-0.08469-0.25404-0.03258-0.54716-0.59276-0.97056-0.75561-0.57974-1.7197-0.57974-0.63185 0-1.192 0.28009-0.41689 0.20193-0.66442 0.49506-0.42992 0.50809-0.68396 1.1269-0.18239 0.45597-0.18239 1.0292v0.95754q0 1.2246 0.88589 2.13 0.88589 0.89892 2.0584 0.89892 0.7035 0 1.2572-0.30616 0.56019-0.30616 1.0813-0.92499 0.11073-0.13677 0.24753-0.13677 0.11725 0 0.1889 0.0715 0.07166 0.0717 0.07166 0.1824 0 0.14981-0.2801 0.45598-0.53414 0.59927-1.2051 0.90543-0.66441 0.29963-1.3484 0.29963-0.59276 0-1.2051-0.22798-0.469-0.17587-0.77515-0.41037-0.30615-0.23451-0.75561-0.78819-0.44294-0.56019-0.60579-1.0292-0.16285-0.47553-0.16285-1.0422v-1.1138q0-0.80771 0.42992-1.648 0.43643-0.84681 1.1855-1.2963 0.75561-0.45596 1.635-0.45596 1.3549 0 2.332 0.92496z" style="paint-order:markers stroke fill"/>
<path d="m55.791 120.59v3.1332h1.876q0.19542 0 0.2801 0.0783 0.08469 0.0717 0.08469 0.19541 0 0.11722-0.08469 0.19542-0.08467 0.0782-0.2801 0.0782h-3.1592q-0.19542 0-0.2801-0.0782-0.08468-0.0783-0.08468-0.19542 0-0.12371 0.08468-0.19541 0.08467-0.0783 0.2801-0.0783h0.73607v-6.5269h-0.73607q-0.19542 0-0.2801-0.0715-0.08468-0.0782-0.08468-0.20194 0-0.1237 0.0977-0.20844 0.07166-0.0651 0.26707-0.0651h6.0253v1.8825q0 0.19541-0.07817 0.28008-0.07817 0.0846-0.19542 0.0846-0.12376 0-0.20193-0.0846-0.07817-0.0846-0.07817-0.28008v-1.3354h-4.1884v2.8466h1.9607v-0.6188q0-0.19543 0.07817-0.28011 0.07817-0.0846 0.20193-0.0846 0.11725 0 0.19542 0.0846 0.07817 0.0846 0.07817 0.28011v1.7848q0 0.19543-0.07817 0.2801-0.07817 0.0846-0.19542 0.0846-0.12376 0-0.20193-0.0846-0.07817-0.0846-0.07817-0.2801v-0.6188z" style="paint-order:markers stroke fill"/>
</g>
</svg>
